<?xml version="1.0" encoding="UTF-8"?>
<svg width="403.75" height="177.12" version="1.1" viewBox="0 0 53.412117 23.431927" xmlns="http://www.w3.org/2000/svg" xmlns:cc="http://creativecommons.org/ns#" xmlns:dc="http://purl.org/dc/elements/1.1/" xmlns:rdf="http://www.w3.org/1999/02/22-rdf-syntax-ns#">
<g transform="translate(-8.9821 -121.48)" stroke="#21201e">
<path d="m56.535 129.87 5.6856 8.2382-49.571-0.83463-3.5535-2.3016 3.7311-8.1472z" fill="#fc0" stroke-width=".18"/>
<path d="m44.01 142.3 2.5513-18.37 9.3549-1.871-2.8915 18.71z" fill="#808080" stroke-width=".1125"/>
<path d="m43.237 135.2 7.0022-11.154 4.9693 12.885z" fill="#f00" stroke-width=".18"/>
<path d="m11.242 139.39 6.192 5.4578 28.888-5.3276z" fill="#ccc" stroke-width=".10702"/>
<path d="m16.25 121.79 19.724 8.1749 6.7352-8.4386z" fill="#ccc" stroke-width=".10596"/>
<g transform="matrix(.22878 0 0 .22128 14.085 97.509)" stroke-width=".8" aria-label="AbstraKt">
<path d="m11.875 161.65q0 2.5368-2.2726 2.5897 0.26426 1.2156 1.1627 3.2768-0.05285 1.1627-0.95132 1.9026-0.89847 0.73992-2.114 0.73992-0.95132 0-2.2197-0.58136-0.68706-1.3741-0.68706-3.2768 0-0.47566 0.052851-1.3741t0.052851-1.3213q0 0.36996-1.7441 0.36996-2.9597 0-7.0292 0.26426-5.8136 0.3171-6.3421 0.89846-0.47566 0.58136-0.63421 5.6551-0.68706 1.0042-1.7441 1.0042-1.1099 0-2.2726-0.89847-1.1627-0.95132-1.1627-2.0083 0-0.36995 0.95132-2.9596 1.057-3.7524 3.4353-11.257 7.082-19.396 11.786-19.396 4.598 0 7.082 10.253 1.1099 4.598 2.0612 14.111 1.3741 0.3171 1.7441 0.52851 0.84562 0.47566 0.84562 1.4798zm-7.3991-2.0083q-2.3254-18.445-4.1752-18.445-1.4798 0-5.1794 8.6676-2.6426 6.2364-4.1752 10.834 1.6912-0.36996 5.0208-0.89847 3.0125-0.36996 8.509-0.15855z"/>
<path d="m39.03 159.01q0 4.7566-1.6384 8.0862-2.114 4.2809-6.395 4.2809-1.3741 0-4.3338-1.0042 0.05285 0.36996 0.05285 0.68707 0 1.7441-1.9555 1.7441-1.427 0-2.3254-1.057-0.42281-0.47566-0.68706-3.2768-0.26426-2.3254-0.26426-3.6467v-0.21141l0.79276-29.861q0.84562-1.3213 2.0083-1.1099 0.26426-0.1057 0.52851-0.1057 0.95132 0 1.7441 1.1627 0.84562 1.1099 0.84562 2.114 0 2.2726-0.42281 6.0779-0.52851 4.3866-0.58136 6.025 1.5327-1.8498 3.9638-1.8498 2.9068 0 5.2322 2.114 2.3254 2.0612 3.0125 5.0208 0.42281 1.7969 0.42281 4.8094zm-4.9151-0.36996q0-7.1877-3.0125-7.1877-2.5368 0-3.8581 3.6467-1.0042 2.7482-1.0042 5.8665 0 6.6592 4.0167 6.6592 3.8581 0 3.8581-8.9847z"/>
<path d="m65.132 165.67q0 2.484-2.114 4.3338-2.3254 2.0083-6.2364 2.0083-1.6912 0.0529-3.6467-0.68706-6.3421-2.3783-6.3421-3.8581 0-2.3254 3.3296-2.3254 0.47566 0 1.0042 0.0529 0.15855 1.5855 2.5368 2.5368 2.0612 0.84562 3.9638 0.68707 1.5327-0.10571 1.5327-1.1099 0-0.15855-0.1057-0.47565-0.05285-0.31711-0.05285-0.47566 0-0.21141-2.0083-0.84562-2.2726-0.68706-2.5368-0.79277-6.025-3.5939-6.025-8.6676 0-3.0654 1.7441-5.6551 1.9555-2.854 4.8623-2.854 2.1669 0 4.9151 1.6912 2.8011 1.6912 3.4353 3.6467 0.42281 1.3741 0.42281 2.2726 0 0.95132-0.26426 1.5855-0.31711 0.79277-0.63421 1.5855-1.0042 0.68707-2.0083 0.68707-0.52851 0-1.7969-0.63422-1.2156-0.68706-1.2156-1.1627 0-0.2114 0.63421-1.3741 0.36996-0.68706 0.36996-1.1627 0-3.1711-2.484-3.1711-1.4798 0-2.2726 1.9026-0.58136 1.4798-0.58136 3.1711 0 2.114 3.0125 3.8053 2.7483 1.2156 5.5494 2.484 3.0125 1.3741 3.0125 2.8011z"/>
<path d="m86.319 152.09q0 1.427-4.3866 2.0083-0.1057 1.1627-0.1057 5.2851v3.4882q0 1.057 0.31711 3.1182 0.36996 2.0612 0.36996 3.0654 0 0.84561-0.84562 1.5327-0.84562 0.63421-1.6912 0.63421-1.3213 0-2.2197-2.2726-0.68706-1.7441-0.68706-3.3825v-11.204q-2.4311-0.36996-2.8011-0.47566-1.3741-0.42281-1.3741-1.2156 0-0.2114 0.1057-0.47566 1.3741-1.9555 3.0654-1.9555 0.1057 0 0.31711 0 0.2114 0.0529 0.31711 0.0529 1.1099 0 1.057-2.5897v-3.8581q-0.31711-0.58136-0.31711-1.0042 0-0.68706 0.79276-1.2156 0.84562-0.58136 1.5855-0.58136 1.1099 0 2.114 1.057 1.0042 1.0042 1.0042 2.1669 0 1.2684-0.42281 2.5368-0.36996 1.2156-0.31711 2.5368v0.2114q4.1224 0.42281 4.1224 2.5368z"/>
<path d="m107.99 152.83q0 0.36995-0.1057 1.1627-1.1099 1.5855-2.3254 1.5855-1.0042 0-1.7969-1.1627-0.1057-2.3783-1.6912-2.3783-0.95132 0-2.3254 5.0208-0.63421 2.2197-0.63421 6.1836 0 3.7524 0.36996 4.5452 0.42281 1.0042 0.42281 1.3741 0 0.89847-0.84562 1.4798-0.79276 0.52851-1.7969 0.52851-2.854 0-2.854-2.6426 0-0.26426 0.1057-0.73992 0.15855-0.47566 0.15855-0.68706 0-2.6954-0.26426-7.9805-0.26426-5.338-0.26426-7.9805 0-2.3783 2.854-2.3783 1.6912 0 2.3254 1.0042 1.4798-1.6384 3.3296-1.6384 1.2684 0 2.4312 0.68706 0.79276 0.42281 1.8498 1.8498 1.057 1.3741 1.057 2.1669z"/>
<path d="m132.71 162.02q0 6.8178-0.42281 9.6189-0.26425 1.6384-2.2197 1.6384-2.9596 0-2.6426-2.9597-2.6426 1.2684-5.4965 1.2684-2.7483 0-5.2322-1.3741-2.9597-1.6384-2.9597-4.1752 0-2.484 3.3825-4.6509 3.0654-1.9555 5.7608-1.9555h4.4923v-1.2684q0.0528-5.5494-3.2768-5.5494-4.1752 0-4.1752 3.911 0 1.3213-1.4798 1.3213-0.89847 0-1.9026-0.79276-0.95132-0.84562-0.95132-1.7441 0-2.9596 2.114-4.8623 2.114-1.9026 5.0737-1.9026 9.936 0 9.936 13.477zm-5.338 1.9026q0-1.057-1.5855-1.057-6.6064 0-6.6064 3.1182 0 1.6912 2.9068 1.6912 1.7969 0 3.3825-1.0042 1.9026-1.1099 1.9026-2.7482z"/>
<path d="m170.72 166.78q0 1.427-1.7441 2.2726-1.427 0.63421-3.0125 0.63421-7.3463 0-14.798-13.741-4.4395 5.1265-4.4395 6.9763 0 4.8623 1.2156 6.9235l0.15856 1.4798q-1.1627 1.3213-2.3254 1.3213-1.7441 0-2.9597-2.7483-1.1627-2.8011-1.1627-19.608 0-9.6189 0.68706-13.371 0.42281-2.2197 2.4312-2.2197 1.2684 0 2.854 1.0042t1.5855 2.1669q0 0.79276-0.47566 1.057-0.47566 0.26425-0.84562 0.47566-0.36996 0.42281-0.84561 7.3463-0.31711 5.3908-0.42281 8.2448 14.217-19.502 17.864-19.502 0.58136 0 1.3213 0.31711 0.58136 0.73991 1.1099 1.5327 0.68706 0.95132 0.68706 1.6912 0 0.68706-0.52851 1.2156-0.47566 0.47565-1.1627 0.47565-0.42281 0-1.1099-0.3171l-0.15856-0.15855q-1.2684 0.15855-5.1794 4.8094-3.8581 4.6509-3.8581 6.0779 0 3.0654 3.541 8.7733 3.6996 6.0779 6.5007 6.0779 0.36996 0 1.3741-0.42281 1.057-0.47566 1.7441-0.47566 1.9555 0 1.9555 1.6912z" fill="#fff"/>
<path d="m191.63 152.09q0 1.427-4.3866 2.0083-0.1057 1.1627-0.1057 5.2851v3.4882q0 1.057 0.3171 3.1182 0.36996 2.0612 0.36996 3.0654 0 0.84561-0.84562 1.5327-0.84561 0.63421-1.6912 0.63421-1.3213 0-2.2197-2.2726-0.68706-1.7441-0.68706-3.3825v-11.204q-2.4312-0.36996-2.8011-0.47566-1.3741-0.42281-1.3741-1.2156 0-0.2114 0.1057-0.47566 1.3741-1.9555 3.0654-1.9555 0.1057 0 0.3171 0 0.21141 0.0529 0.31711 0.0529 1.1099 0 1.057-2.5897v-3.8581q-0.31711-0.58136-0.31711-1.0042 0-0.68706 0.79277-1.2156 0.84561-0.58136 1.5855-0.58136 1.1099 0 2.114 1.057 1.0042 1.0042 1.0042 2.1669 0 1.2684-0.42281 2.5368-0.36996 1.2156-0.31711 2.5368v0.2114q4.1224 0.42281 4.1224 2.5368z"/>
</g>
</g>
</svg>
